<?xml version="1.0" encoding="UTF-8" standalone="no"?>
<svg
   viewBox="0 0 640 640"
   version="1.1"
   id="svg1"
   sodipodi:docname="euro.svg"
   inkscape:version="1.4.2 (ebf0e940d0, 2025-05-08)"
   xmlns:inkscape="http://www.inkscape.org/namespaces/inkscape"
   xmlns:sodipodi="http://sodipodi.sourceforge.net/DTD/sodipodi-0.dtd"
   xmlns="http://www.w3.org/2000/svg"
   xmlns:svg="http://www.w3.org/2000/svg">
  <defs
     id="defs1" />
  <sodipodi:namedview
     id="namedview1"
     pagecolor="#ffffff"
     bordercolor="#000000"
     borderopacity="0.25"
     inkscape:showpageshadow="2"
     inkscape:pageopacity="0.0"
     inkscape:pagecheckerboard="0"
     inkscape:deskcolor="#d1d1d1"
     inkscape:zoom="0.4890625"
     inkscape:cx="320"
     inkscape:cy="320"
     inkscape:window-width="1600"
     inkscape:window-height="860"
     inkscape:window-x="0"
     inkscape:window-y="0"
     inkscape:window-maximized="1"
     inkscape:current-layer="svg1" />
  <!--!Font Awesome Free v7.0.0 by @fontawesome - https://fontawesome.com License - https://fontawesome.com/license/free Copyright 2025 Fonticons, Inc.-->
  <ellipse
     style="fill:#003399;fill-opacity:1;stroke:none;stroke-width:18.4652;stroke-dasharray:none"
     id="path2"
     cx="318.21579"
     cy="320"
     rx="310.98819"
     ry="309.79208" />
  <path
     d="m 152.40543,256 c 27.5,-92.5 113.2,-160.000002 214.7,-160.000002 h 64 c 17.7,0 32,14.300002 32,32.000002 0,17.7 -14.3,32 -32,32 h -64 c -65.6,0 -122,39.5 -146.7,96 h 130.7 c 13.3,0 24,10.7 24,24 0,13.3 -10.7,24 -24,24 h -143.2 c -0.5,5.3 -0.8,10.6 -0.8,16 0,5.4 0.3,10.7 0.8,16 h 143.2 c 13.3,0 24,10.7 24,24 0,13.3 -10.7,24 -24,24 h -130.7 c 24.7,56.5 81.1,96 146.7,96 h 64 c 17.7,0 32,14.3 32,32 0,17.7 -14.3,32 -32,32 h -64 c -101.5,0 -187.2,-67.5 -214.7,-160 h -33.3 c -13.3,0 -23.999999,-10.7 -23.999999,-24 0,-13.3 10.699999,-24 23.999999,-24 h 24.6 c -0.7,-10.5 -0.7,-21.5 0,-32 h -24.6 c -13.3,0 -23.999999,-10.7 -23.999999,-24 0,-13.3 10.699999,-24 23.999999,-24 z"
     id="path1"
     style="fill:#ffffff" />
</svg>
