<?xml version="1.0" encoding="UTF-8" standalone="no"?>
<!-- Uploaded to: SVG Repo, www.svgrepo.com, Generator: SVG Repo Mixer Tools -->

<svg
   width="339.51501"
   height="339.51501"
   viewBox="0 0 10.18545 10.185451"
   fill="none"
   version="1.1"
   id="svg2794"
   sodipodi:docname="bitcoin.svg"
   inkscape:version="1.4.2 (ebf0e940d0, 2025-05-08)"
   xmlns:inkscape="http://www.inkscape.org/namespaces/inkscape"
   xmlns:sodipodi="http://sodipodi.sourceforge.net/DTD/sodipodi-0.dtd"
   xmlns="http://www.w3.org/2000/svg"
   xmlns:svg="http://www.w3.org/2000/svg">
  <defs
     id="defs2798">
    <inkscape:path-effect
       effect="powerclip"
       message=""
       id="path-effect13"
       is_visible="true"
       lpeversion="1"
       inverse="true"
       flatten="true"
       hide_clip="false" />
    <filter
       id="mask-powermask-path-effect4679_inverse"
       inkscape:label="filtermask-powermask-path-effect4679"
       style="color-interpolation-filters:sRGB"
       height="100"
       width="100"
       x="-50"
       y="-50">
      <feColorMatrix
         id="mask-powermask-path-effect4679_primitive1"
         values="1"
         type="saturate"
         result="fbSourceGraphic" />
      <feColorMatrix
         id="mask-powermask-path-effect4679_primitive2"
         values="-1 0 0 0 1 0 -1 0 0 1 0 0 -1 0 1 0 0 0 1 0 "
         in="fbSourceGraphic" />
    </filter>
    <filter
       id="mask-powermask-path-effect7625_inverse"
       inkscape:label="filtermask-powermask-path-effect7625"
       style="color-interpolation-filters:sRGB"
       height="100"
       width="100"
       x="-50"
       y="-50">
      <feColorMatrix
         id="mask-powermask-path-effect7625_primitive1"
         values="1"
         type="saturate"
         result="fbSourceGraphic" />
      <feColorMatrix
         id="mask-powermask-path-effect7625_primitive2"
         values="-1 0 0 0 1 0 -1 0 0 1 0 0 -1 0 1 0 0 0 1 0 "
         in="fbSourceGraphic" />
    </filter>
    <filter
       id="mask-powermask-path-effect1_inverse"
       inkscape:label="filtermask-powermask-path-effect1"
       style="color-interpolation-filters:sRGB"
       height="100"
       width="100"
       x="-50"
       y="-50">
      <feColorMatrix
         id="mask-powermask-path-effect1_primitive1"
         values="1"
         type="saturate"
         result="fbSourceGraphic" />
      <feColorMatrix
         id="mask-powermask-path-effect1_primitive2"
         values="-1 0 0 0 1 0 -1 0 0 1 0 0 -1 0 1 0 0 0 1 0 "
         in="fbSourceGraphic" />
    </filter>
    <clipPath
       clipPathUnits="userSpaceOnUse"
       id="clipPath13">
      <path
         d="m 13.577958,13.918543 c -0.379913,1.729621 -2.954877,0.793404 -3.7991277,0.555383 l 0.6754007,-3.06254 c 0.84425,0.238021 3.517711,0.698195 3.123727,2.507157 z M 11.382906,7.2222599 10.763789,9.9991267 c 0.703543,0.1904173 2.856382,0.9996893 3.208153,-0.571251 0.351771,-1.634365 -1.885493,-2.0151989 -2.589036,-2.2056158 z M 22.358164,14.331113 C 20.852584,21.122651 14.745838,25.264221 8.7094463,23.582204 2.6871249,21.884319 -0.99943603,14.997572 0.50614416,8.2060333 2.0117244,1.3986741 8.1184707,-2.7270272 14.154863,-1.0450106 c 6.02232,1.69788489 9.708882,8.5846321 8.203301,15.3761236 z M 7.7385579,13.394896 c -0.056283,0.174549 -0.2110627,0.428438 -0.5628338,0.33323 -0.056283,0 -0.900534,-0.25389 -0.900534,-0.25389 l -0.6191171,1.586809 1.6040762,0.444306 c 0.3095586,0.09521 0.5909755,0.174549 0.8864632,0.269758 L 7.640062,18.07598 8.8642253,18.425078 9.3707757,16.140074 c 0.3377002,0.111077 0.6613293,0.190417 0.9849593,0.285626 l -0.5065504,2.269135 1.2382344,0.349098 0.50655,-2.300872 c 2.110627,0.444306 3.700632,0.269757 4.361962,-1.888301 0.534692,-1.729622 -0.02814,-2.729311 -1.139738,-3.379902 0.802038,-0.206285 1.407084,-0.809272 1.575934,-2.0469823 C 16.61726,7.7459064 15.477522,6.8255579 13.915658,6.2384388 L 14.422209,3.937567 13.183975,3.5884692 12.691495,5.8100006 c -0.32363,-0.095209 -0.66133,-0.1745488 -0.99903,-0.2697573 L 12.184945,3.3028438 10.960781,2.953746 10.454231,5.2387497 C 10.186885,5.1752774 9.9195386,5.095937 9.6662634,5.0324647 L 7.9636914,4.5405542 7.640062,6.0321538 c 0,0 0.9005342,0.2380212 0.9005342,0.2538893 0.4924792,0.1428127 0.5769043,0.5077786 0.5769043,0.8092721 L 7.7244871,13.36316 Z"
         fill="#000000"
         id="path13"
         style="display:none;fill:#ffffff;stroke-width:1.49425"
         inkscape:label="path2792"
         clip-path="none"
         mask="none" />
      <path
         id="lpe_path-effect13"
         style="display:inline;fill:#ffffff;stroke-width:1.49425"
         class="powerclip"
         d="M -3.3058369,-2.0801134 H 26.170146 V 24.082259 H -3.3058369 Z M 13.577958,13.918543 c 0.393984,-1.808962 -2.279477,-2.269136 -3.123727,-2.507157 l -0.6754007,3.06254 c 0.8442507,0.238021 3.4192147,1.174238 3.7991277,-0.555383 z M 11.382906,7.2222599 10.763789,9.9991267 c 0.703543,0.1904173 2.856382,0.9996893 3.208153,-0.571251 0.351771,-1.634365 -1.885493,-2.0151989 -2.589036,-2.2056158 z M 22.358164,14.331113 C 23.863745,7.5396215 20.177183,0.65287429 14.154863,-1.0450106 8.1184707,-2.7270272 2.0117244,1.3986741 0.50614416,8.2060333 -0.99943603,14.997572 2.6871249,21.884319 8.7094463,23.582204 14.745838,25.264221 20.852584,21.122651 22.358164,14.331113 Z M 7.7385579,13.394896 c -0.056283,0.174549 -0.2110627,0.428438 -0.5628338,0.33323 -0.056283,0 -0.900534,-0.25389 -0.900534,-0.25389 l -0.6191171,1.586809 1.6040762,0.444306 c 0.3095586,0.09521 0.5909755,0.174549 0.8864632,0.269758 L 7.640062,18.07598 8.8642253,18.425078 9.3707757,16.140074 c 0.3377002,0.111077 0.6613293,0.190417 0.9849593,0.285626 l -0.5065504,2.269135 1.2382344,0.349098 0.50655,-2.300872 c 2.110627,0.444306 3.700632,0.269757 4.361962,-1.888301 0.534692,-1.729622 -0.02814,-2.729311 -1.139738,-3.379902 0.802038,-0.206285 1.407084,-0.809272 1.575934,-2.0469823 C 16.61726,7.7459064 15.477522,6.8255579 13.915658,6.2384388 L 14.422209,3.937567 13.183975,3.5884692 12.691495,5.8100006 c -0.32363,-0.095209 -0.66133,-0.1745488 -0.99903,-0.2697573 L 12.184945,3.3028438 10.960781,2.953746 10.454231,5.2387497 C 10.186885,5.1752774 9.9195386,5.095937 9.6662634,5.0324647 L 7.9636914,4.5405542 7.640062,6.0321538 c 0,0 0.9005342,0.2380212 0.9005342,0.2538893 0.4924792,0.1428127 0.5769043,0.5077786 0.5769043,0.8092721 L 7.7244871,13.36316 Z" />
    </clipPath>
  </defs>
  <sodipodi:namedview
     id="namedview2796"
     pagecolor="#ffffff"
     bordercolor="#666666"
     borderopacity="1.0"
     inkscape:showpageshadow="2"
     inkscape:pageopacity="0.0"
     inkscape:pagecheckerboard="0"
     inkscape:deskcolor="#d1d1d1"
     showgrid="false"
     inkscape:zoom="1.069499"
     inkscape:cx="137.44753"
     inkscape:cy="182.79587"
     inkscape:window-width="1596"
     inkscape:window-height="856"
     inkscape:window-x="0"
     inkscape:window-y="0"
     inkscape:window-maximized="1"
     inkscape:current-layer="svg2794" />
  <g
     id="g4573"
     transform="matrix(0.71068943,0,0,0.63019592,-3.0319861,-1.8401058)"
     clip-path="url(#clipPath13)"
     mask="none"
     inkscape:label="g4573"
     inkscape:path-effect="#path-effect13">
    <path
       style="display:inline;fill:#ffff00;stroke-width:0.0303015"
       id="rect4422"
       width="12.053926"
       height="5.4000001"
       x="5.3894629"
       y="2.9198866"
       sodipodi:type="rect"
       d="M 11.138184,8.3198867 H 8.8453424 L 9.1175005,7.0953152 c 0,-0.3014935 -0.084425,-0.6664594 -0.5769043,-0.8092721 0,-0.015868 -0.9005342,-0.2538893 -0.9005342,-0.2538893 l 0.3236294,-1.4915996 1.702572,0.4919105 c 0.2532752,0.063472 0.5206216,0.1428127 0.7879676,0.206285 l 0.50655,-2.2850037 1.224164,0.3490978 -0.49248,2.2373995 c 0.3377,0.095209 0.6754,0.1745483 0.99903,0.2697573 l 0.49248,-2.2215314 1.238234,0.3490978 -0.506551,2.3008718 c 1.178196,0.4428949 2.116183,1.0754133 2.409274,2.0814479 l -2.581018,0 C 13.183231,7.5937483 11.887926,7.3589458 11.382906,7.2222599 Z" />
    <path
       style="fill:#0000ff;stroke-width:0.0303015"
       id="rect4422-3"
       width="12.053926"
       height="5.4000001"
       x="5.4094524"
       y="8.3223324"
       sodipodi:type="rect"
       d="m 13.609431,13.722332 c 0.166267,-1.646658 -2.342335,-2.081773 -3.1552,-2.310946 l -0.5096472,2.310946 h -2.477815 c 0.1534221,-0.06029 0.2343718,-0.211395 0.2717891,-0.327436 L 7.7244871,13.36316 8.8447989,8.3223324 h 2.2928401 l -0.37385,1.6767943 c 0.703543,0.1904173 2.856382,0.9996893 3.208153,-0.571251 0.09898,-0.4598615 -0.007,-0.820482 -0.226144,-1.1055433 l 2.579845,0 c 0.09487,0.3269865 0.12165,0.6934 0.06648,1.1055433 -0.16885,1.2377103 -0.773896,1.8406973 -1.575934,2.0469823 0.842706,0.493215 1.370025,1.187064 1.342864,2.247474 z m -6.4668351,0 H 6.1783916 l 0.096798,-0.248096 c 0,0 0.6991961,0.210268 0.8674058,0.248096 z" />
    <path
       style="display:inline;fill:#ff0000;stroke-width:0.0303015"
       id="rect4422-6"
       width="12.053926"
       height="5.4000001"
       x="5.4209194"
       y="13.682259"
       sodipodi:type="rect"
       d="m 13.61297,13.682259 2.546853,0 c -0.0044,0.348706 -0.06942,0.737521 -0.203892,1.172501 -0.66133,2.158058 -2.251335,2.332607 -4.361962,1.888301 L 11.087419,19.043933 9.8491846,18.694835 10.355735,16.4257 C 10.032105,16.330491 9.7084759,16.251151 9.3707757,16.140074 L 8.8642253,18.425078 7.640062,18.07598 8.1466124,15.775109 C 7.8511247,15.6799 7.5697078,15.600561 7.2601492,15.505351 L 5.656073,15.061045 6.194027,13.682259 h 0.7946875 c 0.098571,0.02721 0.1717502,0.04587 0.1870096,0.04587 0.159501,0.04317 0.2785021,0.01457 0.366185,-0.04587 h 2.4115125 l -0.1745913,0.791667 c 0.8442507,0.238021 3.4192147,1.174238 3.7991277,-0.555383 0.01774,-0.08146 0.02926,-0.16019 0.03501,-0.236284 z" />
    <path
       style="display:inline;fill:#f2f2f2;stroke-width:0.0329201"
       id="rect4516"
       width="19.475983"
       height="0.54000002"
       x="2.2620087"
       y="11.73"
       transform="translate(-0.56784558,-0.99892735)"
       sodipodi:type="rect"
       d="m 15.895563,12.27 -7.1382689,0 0.1200138,-0.54 7.6142521,0 c -0.16657,0.233192 -0.367984,0.410457 -0.595997,0.54 z" />
  </g>
</svg>
